<svg xmlns="http://www.w3.org/2000/svg" xmlns:xlink="http://www.w3.org/1999/xlink" viewBox="0 0 960 45"><defs><clipPath id="a"><rect x="-244" y="106" width="1280" height="84" style="fill:none"/></clipPath><pattern id="b" width="72" height="72" patternTransform="translate(24.879 53.07) rotate(-45)" patternUnits="userSpaceOnUse" viewBox="0 0 72 72"><rect width="72" height="72" style="fill:none"/><line x1="71.75" y1="68.399" x2="144.25" y2="68.399" style="fill:none;stroke:#ffc34d;stroke-width:3.6px"/><line x1="71.75" y1="54" x2="144.25" y2="54" style="fill:none;stroke:#ffc34d;stroke-width:3.6px"/><line x1="71.75" y1="39.6" x2="144.25" y2="39.6" style="fill:none;stroke:#ffc34d;stroke-width:3.6px"/><line x1="71.75" y1="25.199" x2="144.25" y2="25.199" style="fill:none;stroke:#ffc34d;stroke-width:3.6px"/><line x1="71.75" y1="10.8" x2="144.25" y2="10.8" style="fill:none;stroke:#ffc34d;stroke-width:3.6px"/><line x1="71.75" y1="61.199" x2="144.25" y2="61.199" style="fill:none;stroke:#ffc34d;stroke-width:3.6px"/><line x1="71.75" y1="46.8" x2="144.25" y2="46.8" style="fill:none;stroke:#ffc34d;stroke-width:3.6px"/><line x1="71.75" y1="32.399" x2="144.25" y2="32.399" style="fill:none;stroke:#ffc34d;stroke-width:3.6px"/><line x1="71.75" y1="18" x2="144.25" y2="18" style="fill:none;stroke:#ffc34d;stroke-width:3.6px"/><line x1="71.75" y1="3.6" x2="144.25" y2="3.6" style="fill:none;stroke:#ffc34d;stroke-width:3.6px"/><line x1="-0.25" y1="68.399" x2="72.25" y2="68.399" style="fill:none;stroke:#ffc34d;stroke-width:3.6px"/><line x1="-0.25" y1="54" x2="72.25" y2="54" style="fill:none;stroke:#ffc34d;stroke-width:3.6px"/><line x1="-0.25" y1="39.6" x2="72.25" y2="39.6" style="fill:none;stroke:#ffc34d;stroke-width:3.6px"/><line x1="-0.25" y1="25.199" x2="72.25" y2="25.199" style="fill:none;stroke:#ffc34d;stroke-width:3.6px"/><line x1="-0.25" y1="10.8" x2="72.25" y2="10.8" style="fill:none;stroke:#ffc34d;stroke-width:3.6px"/><line x1="-0.25" y1="61.199" x2="72.25" y2="61.199" style="fill:none;stroke:#ffc34d;stroke-width:3.6px"/><line x1="-0.25" y1="46.8" x2="72.25" y2="46.8" style="fill:none;stroke:#ffc34d;stroke-width:3.6px"/><line x1="-0.25" y1="32.399" x2="72.25" y2="32.399" style="fill:none;stroke:#ffc34d;stroke-width:3.6px"/><line x1="-0.25" y1="18" x2="72.25" y2="18" style="fill:none;stroke:#ffc34d;stroke-width:3.6px"/><line x1="-0.25" y1="3.6" x2="72.25" y2="3.6" style="fill:none;stroke:#ffc34d;stroke-width:3.6px"/><line x1="-72.25" y1="68.399" x2="0.25" y2="68.399" style="fill:none;stroke:#ffc34d;stroke-width:3.6px"/><line x1="-72.25" y1="54" x2="0.25" y2="54" style="fill:none;stroke:#ffc34d;stroke-width:3.6px"/><line x1="-72.25" y1="39.6" x2="0.25" y2="39.6" style="fill:none;stroke:#ffc34d;stroke-width:3.6px"/><line x1="-72.25" y1="25.199" x2="0.25" y2="25.199" style="fill:none;stroke:#ffc34d;stroke-width:3.6px"/><line x1="-72.25" y1="10.8" x2="0.25" y2="10.8" style="fill:none;stroke:#ffc34d;stroke-width:3.6px"/><line x1="-72.25" y1="61.199" x2="0.25" y2="61.199" style="fill:none;stroke:#ffc34d;stroke-width:3.6px"/><line x1="-72.25" y1="46.8" x2="0.25" y2="46.8" style="fill:none;stroke:#ffc34d;stroke-width:3.6px"/><line x1="-72.25" y1="32.399" x2="0.25" y2="32.399" style="fill:none;stroke:#ffc34d;stroke-width:3.6px"/><line x1="-72.25" y1="18" x2="0.25" y2="18" style="fill:none;stroke:#ffc34d;stroke-width:3.6px"/><line x1="-72.25" y1="3.6" x2="0.25" y2="3.6" style="fill:none;stroke:#ffc34d;stroke-width:3.6px"/></pattern><pattern id="c" width="28.799" height="28.801" patternTransform="translate(-36.003 -21.593)" patternUnits="userSpaceOnUse" viewBox="0 0 28.799 28.801"><rect width="28.799" height="28.801" style="fill:none"/><path d="M28.8,31.681A2.88,2.88,0,1,0,25.92,28.8,2.882,2.882,0,0,0,28.8,31.681Z" style="fill:#81e86d"/><path d="M14.4,31.681a2.88,2.88,0,1,0-2.879-2.88A2.881,2.881,0,0,0,14.4,31.681Z" style="fill:#81e86d"/><path d="M28.8,17.281A2.881,2.881,0,1,0,25.92,14.4,2.882,2.882,0,0,0,28.8,17.281Z" style="fill:#81e86d"/><path d="M14.4,17.281A2.881,2.881,0,1,0,11.521,14.4,2.882,2.882,0,0,0,14.4,17.281Z" style="fill:#81e86d"/><path d="M7.2,24.48A2.88,2.88,0,1,0,4.32,21.6,2.882,2.882,0,0,0,7.2,24.48Z" style="fill:#81e86d"/><path d="M21.6,24.48A2.88,2.88,0,1,0,18.719,21.6,2.88,2.88,0,0,0,21.6,24.48Z" style="fill:#81e86d"/><path d="M7.2,10.08A2.88,2.88,0,1,0,4.32,7.2,2.881,2.881,0,0,0,7.2,10.08Z" style="fill:#81e86d"/><path d="M21.6,10.08A2.88,2.88,0,1,0,18.719,7.2,2.88,2.88,0,0,0,21.6,10.08Z" style="fill:#81e86d"/><path d="M0,31.681A2.881,2.881,0,0,0,2.88,28.8,2.88,2.88,0,0,0,0,25.921,2.879,2.879,0,0,0-2.879,28.8,2.88,2.88,0,0,0,0,31.681Z" style="fill:#81e86d"/><path d="M0,17.281A2.882,2.882,0,0,0,2.88,14.4,2.881,2.881,0,0,0,0,11.52,2.88,2.88,0,0,0-2.879,14.4,2.88,2.88,0,0,0,0,17.281Z" style="fill:#81e86d"/><path d="M28.8,2.88A2.882,2.882,0,0,0,31.68,0,2.88,2.88,0,0,0,28.8-2.88,2.879,2.879,0,0,0,25.92,0,2.88,2.88,0,0,0,28.8,2.88Z" style="fill:#81e86d"/><path d="M14.4,2.88A2.881,2.881,0,0,0,17.28,0,2.88,2.88,0,0,0,14.4-2.88,2.879,2.879,0,0,0,11.521,0,2.88,2.88,0,0,0,14.4,2.88Z" style="fill:#81e86d"/><path d="M0,2.88A2.881,2.881,0,0,0,2.88,0,2.88,2.88,0,0,0,0-2.88,2.879,2.879,0,0,0-2.879,0,2.88,2.88,0,0,0,0,2.88Z" style="fill:#81e86d"/></pattern><pattern id="d" width="28.799" height="28.799" patternTransform="translate(-16.003 -11.61)" patternUnits="userSpaceOnUse" viewBox="0 0 28.799 28.799"><rect width="28.799" height="28.799" style="fill:none"/><path d="M28.8,32.4a3.6,3.6,0,1,0-3.6-3.6A3.6,3.6,0,0,0,28.8,32.4Z" style="fill:#e86c00"/><path d="M14.4,32.4a3.6,3.6,0,1,0-3.6-3.6A3.6,3.6,0,0,0,14.4,32.4Z" style="fill:#e86c00"/><circle cx="28.799" cy="14.4" r="3.6" style="fill:#e86c00"/><path d="M14.4,18a3.6,3.6,0,1,0-3.6-3.6A3.6,3.6,0,0,0,14.4,18Z" style="fill:#e86c00"/><path d="M7.2,25.2a3.6,3.6,0,1,0-3.6-3.6A3.6,3.6,0,0,0,7.2,25.2Z" style="fill:#e86c00"/><path d="M21.6,25.2A3.6,3.6,0,1,0,18,21.6,3.6,3.6,0,0,0,21.6,25.2Z" style="fill:#e86c00"/><path d="M7.2,10.8A3.6,3.6,0,1,0,3.6,7.2,3.6,3.6,0,0,0,7.2,10.8Z" style="fill:#e86c00"/><path d="M21.6,10.8A3.6,3.6,0,1,0,18,7.2,3.6,3.6,0,0,0,21.6,10.8Z" style="fill:#e86c00"/><path d="M0,32.4a3.6,3.6,0,0,0,3.6-3.6A3.6,3.6,0,0,0,0,25.2a3.6,3.6,0,0,0-3.6,3.6A3.6,3.6,0,0,0,0,32.4Z" style="fill:#e86c00"/><circle cy="14.4" r="3.6" style="fill:#e86c00"/><path d="M28.8,3.6A3.6,3.6,0,0,0,32.4,0a3.6,3.6,0,0,0-3.6-3.6A3.6,3.6,0,0,0,25.2,0,3.6,3.6,0,0,0,28.8,3.6Z" style="fill:#e86c00"/><path d="M14.4,3.6A3.6,3.6,0,0,0,18,0a3.6,3.6,0,0,0-3.6-3.6A3.6,3.6,0,0,0,10.8,0,3.6,3.6,0,0,0,14.4,3.6Z" style="fill:#e86c00"/><path d="M0,3.6A3.6,3.6,0,0,0,3.6,0,3.6,3.6,0,0,0,0-3.6,3.6,3.6,0,0,0-3.6,0,3.6,3.6,0,0,0,0,3.6Z" style="fill:#e86c00"/></pattern><pattern id="e" width="72" height="72" patternTransform="translate(-121.656 7.834) rotate(-45) scale(1.233)" patternUnits="userSpaceOnUse" viewBox="0 0 72 72"><rect width="72" height="72" style="fill:none"/><line x1="71.75" y1="68.4" x2="144.25" y2="68.4" style="fill:none;stroke:#66d17c;stroke-width:4.32px"/><line x1="71.75" y1="54" x2="144.25" y2="54" style="fill:none;stroke:#66d17c;stroke-width:4.32px"/><line x1="71.75" y1="39.6" x2="144.25" y2="39.6" style="fill:none;stroke:#66d17c;stroke-width:4.32px"/><line x1="71.75" y1="25.2" x2="144.25" y2="25.2" style="fill:none;stroke:#66d17c;stroke-width:4.32px"/><line x1="71.75" y1="10.8" x2="144.25" y2="10.8" style="fill:none;stroke:#66d17c;stroke-width:4.32px"/><line x1="71.75" y1="61.2" x2="144.25" y2="61.2" style="fill:none;stroke:#66d17c;stroke-width:4.32px"/><line x1="71.75" y1="46.8" x2="144.25" y2="46.8" style="fill:none;stroke:#66d17c;stroke-width:4.32px"/><line x1="71.75" y1="32.4" x2="144.25" y2="32.4" style="fill:none;stroke:#66d17c;stroke-width:4.32px"/><line x1="71.75" y1="18" x2="144.25" y2="18" style="fill:none;stroke:#66d17c;stroke-width:4.32px"/><line x1="71.75" y1="3.6" x2="144.25" y2="3.6" style="fill:none;stroke:#66d17c;stroke-width:4.32px"/><line x1="-0.25" y1="68.4" x2="72.25" y2="68.4" style="fill:none;stroke:#66d17c;stroke-width:4.32px"/><line x1="-0.25" y1="54" x2="72.25" y2="54" style="fill:none;stroke:#66d17c;stroke-width:4.32px"/><line x1="-0.25" y1="39.6" x2="72.25" y2="39.6" style="fill:none;stroke:#66d17c;stroke-width:4.32px"/><line x1="-0.25" y1="25.2" x2="72.25" y2="25.2" style="fill:none;stroke:#66d17c;stroke-width:4.32px"/><line x1="-0.25" y1="10.8" x2="72.25" y2="10.8" style="fill:none;stroke:#66d17c;stroke-width:4.32px"/><line x1="-0.25" y1="61.2" x2="72.25" y2="61.2" style="fill:none;stroke:#66d17c;stroke-width:4.32px"/><line x1="-0.25" y1="46.8" x2="72.25" y2="46.8" style="fill:none;stroke:#66d17c;stroke-width:4.32px"/><line x1="-0.25" y1="32.4" x2="72.25" y2="32.4" style="fill:none;stroke:#66d17c;stroke-width:4.32px"/><line x1="-0.25" y1="18" x2="72.25" y2="18" style="fill:none;stroke:#66d17c;stroke-width:4.32px"/><line x1="-0.25" y1="3.6" x2="72.25" y2="3.6" style="fill:none;stroke:#66d17c;stroke-width:4.32px"/><line x1="-72.25" y1="68.4" x2="0.25" y2="68.4" style="fill:none;stroke:#66d17c;stroke-width:4.32px"/><line x1="-72.25" y1="54" x2="0.25" y2="54" style="fill:none;stroke:#66d17c;stroke-width:4.32px"/><line x1="-72.25" y1="39.6" x2="0.25" y2="39.6" style="fill:none;stroke:#66d17c;stroke-width:4.32px"/><line x1="-72.25" y1="25.2" x2="0.25" y2="25.2" style="fill:none;stroke:#66d17c;stroke-width:4.32px"/><line x1="-72.25" y1="10.8" x2="0.25" y2="10.8" style="fill:none;stroke:#66d17c;stroke-width:4.32px"/><line x1="-72.25" y1="61.2" x2="0.25" y2="61.2" style="fill:none;stroke:#66d17c;stroke-width:4.32px"/><line x1="-72.25" y1="46.8" x2="0.25" y2="46.8" style="fill:none;stroke:#66d17c;stroke-width:4.32px"/><line x1="-72.25" y1="32.4" x2="0.25" y2="32.4" style="fill:none;stroke:#66d17c;stroke-width:4.32px"/><line x1="-72.25" y1="18" x2="0.25" y2="18" style="fill:none;stroke:#66d17c;stroke-width:4.32px"/><line x1="-72.25" y1="3.6" x2="0.25" y2="3.6" style="fill:none;stroke:#66d17c;stroke-width:4.32px"/></pattern><clipPath id="f"><rect x="-97" width="1057" height="45" style="fill:none"/></clipPath></defs><title>アートボード 3</title><g style="clip-path:url(#a)"><path d="M1036,190H-244S-52-52,396-52C871-52,1036,190,1036,190Z" style="fill:#ede32e"/><rect x="-244" y="-52" width="1280" height="242" style="fill:#ede32e"/><circle cx="662.5" cy="136.5" r="154.5" style="fill:#62ba58"/><circle cx="106" cy="4" r="111" style="fill:#f49540"/><circle cx="114" cy="182" r="151" style="fill:#bfa836"/><circle cx="351" cy="60" r="170" style="fill:url(#b)"/><circle cx="597" cy="-59" r="151" style="fill:url(#c)"/><circle cx="11" cy="124" r="122" style="fill:url(#d)"/><circle cx="975.5" cy="104.5" r="120.5" style="fill:#9dc108"/><circle cx="803.5" cy="95.5" r="158.5" style="fill:url(#e)"/></g><g style="clip-path:url(#f)"><path d="M863,45H-97S47-136.5,383-136.5C739.25-136.5,863,45,863,45Z" style="fill:#ede32e"/><rect x="-97" y="-136.5" width="960" height="181.5" style="fill:#ede32e"/><circle cx="582.875" cy="4.875" r="115.875" style="fill:#62ba58"/><circle cx="171.5" cy="39" r="113.25" style="fill:#bfa836"/><circle cx="349.25" cy="-52.5" r="127.5" style="fill:url(#b)"/><circle cx="427.25" cy="21.75" r="76.5" style="fill:#e5e539"/><circle cx="-25.75" cy="25.5" r="91.5" style="fill:#f7ae2d"/><circle cx="94.25" cy="-4.5" r="91.5" style="fill:url(#d)"/><circle cx="817.625" cy="-19.125" r="90.375" style="fill:#9dc108"/><circle cx="909.625" cy="4.875" r="90.375" style="fill:#9dc108"/><circle cx="688.625" cy="-25.875" r="118.875" style="fill:url(#e)"/></g><path d="M938.268,15.863a10.982,10.982,0,0,0,3.309,1c1.891.363,3.856,1.793,5.386,1.352,1.034-.3,2.156-2.963,2.156-3.359v-.039c0-.276-.207-.5-.559-.682-1.442-.737-1.715-1.009-2.25-.861-2.776.764-7.676.372-8.042,2.584" style="fill:#390e0c;fill-rule:evenodd"/><path d="M938.268,21.273a10.982,10.982,0,0,0,3.309,1c2.109.386,3.949,1.641,5.479,1.2,1.034-.3,2.063-2.81,2.063-3.206v-.039c0-.276-.207-.5-.559-.682-1.1-.584-2.554-1.229-3.089-1.082-2.776.765-6.5.933-7.2,2.805" style="fill:#390e0c;fill-rule:evenodd"/><path d="M947.052,10.5a38.473,38.473,0,0,1-8.8,1.159h0v4.169a.069.069,0,0,0,.015.039,46,46,0,0,0,8.871-1.251,10.528,10.528,0,0,0,1.421-.472c.34-.153.559-.314.559-.481V9.451c0,.4-1.033.747-2.067,1.045" style="fill:#dc2b14;fill-rule:evenodd"/><path d="M947.052,15.907a33.668,33.668,0,0,1-5.475.961c-1.263.129-2.443.2-3.321.2h0v4.169a.069.069,0,0,0,.015.039,46,46,0,0,0,8.871-1.251,10.528,10.528,0,0,0,1.421-.472c.34-.153.559-.314.559-.481V14.861c0,.4-1.033.747-2.067,1.046" style="fill:#dc2b14;fill-rule:evenodd"/><path d="M947.052,21.317a33.56,33.56,0,0,1-5.475.961c-1.265.129-2.446.2-3.324.2v4.208a45.986,45.986,0,0,0,8.886-1.25c1.026-.283,1.98-.6,1.98-.954V20.271c0,.4-1.033.747-2.067,1.046" style="fill:#dc2b14;fill-rule:evenodd"/><path d="M889.51,17.129a6.556,6.556,0,0,0,2.75.571c2.684,0,3.828-1.338,3.828-2.895,0-1.308-.6-2.185-2.324-2.791C892.5,11.559,892,11.465,892,10.873c0-.482.434-.8,1.391-.768a3.958,3.958,0,0,1,1.836.436l.6-1.846a6.705,6.705,0,0,0-2.592-.51c-2.307,0-3.694,1.259-3.694,2.843,0,1.35.928,2.223,2.553,2.76,1.175.4,1.535.656,1.535,1.235,0,.394-.3.685-1.317.685a5.558,5.558,0,0,1-2.387-.612ZM902.357,15.7a3.038,3.038,0,0,1-1.26.11,1.5,1.5,0,0,1-1.467-1.646,1.5,1.5,0,0,1,1.439-1.729,1.9,1.9,0,0,1,1.233.207l.45-1.711a5.343,5.343,0,0,0-1.683-.263c-2.641,0-3.835,1.618-3.835,3.595,0,2.129,1.155,3.387,3.447,3.387a5,5,0,0,0,1.882-.318Zm7.46,1.874a11.1,11.1,0,0,1-.1-1.729l.041-2.387c0-1.671-.831-2.85-3.2-2.85a5.834,5.834,0,0,0-2.767.651l.484,1.563a3.272,3.272,0,0,1,1.771-.512c1.088,0,1.245.217,1.245.6h0c-2.51-.015-4.018.8-4.018,2.649a2.176,2.176,0,0,0,2.293,2.18,2.4,2.4,0,0,0,1.958-.872h.044l.13.712Zm-2.449-2.5a1.284,1.284,0,0,1-.035.3.966.966,0,0,1-.918.651.635.635,0,0,1-.7-.675c0-.685.721-.906,1.651-.894Zm14.015,2.5a10.956,10.956,0,0,1-.1-1.729l.041-2.387c0-1.671-.83-2.85-3.2-2.85a5.83,5.83,0,0,0-2.767.651l.484,1.563a3.267,3.267,0,0,1,1.771-.512c1.088,0,1.245.217,1.245.6h0c-2.51-.015-4.018.8-4.018,2.649a2.176,2.176,0,0,0,2.292,2.18,2.4,2.4,0,0,0,1.959-.872h.043l.131.712Zm-2.45-2.5a1.285,1.285,0,0,1-.034.3.967.967,0,0,1-.919.651.635.635,0,0,1-.7-.675c0-.685.72-.906,1.65-.894Zm-7.587,2.433h2.371v-9.7h-2.371Z" style="fill:#390e0c"/><path d="M894.305,28.732h2.139V25.61l.808-1.007,2.352,4.129h2.508L898.8,23.241l3.16-4.073h-2.664l-2.153,3.179c-.227.34-.454.681-.666,1.05h-.029V19.168h-2.139Zm14.394-4.1a2.69,2.69,0,0,0-3.032-3.008,5.691,5.691,0,0,0-2.692.624l.4,1.391a3.888,3.888,0,0,1,1.913-.525c1.062,0,1.26.525,1.26.908v.085c-2.451,0-4.066.851-4.066,2.653a2.126,2.126,0,0,0,2.239,2.129,2.491,2.491,0,0,0,1.983-.852h.043l.127.7h1.941a9.016,9.016,0,0,1-.113-1.675Zm-2.083,1.575a1.568,1.568,0,0,1-.042.369,1.19,1.19,0,0,1-1.119.794.773.773,0,0,1-.85-.822c0-.824.878-1.093,2.011-1.093Zm3.8,2.526h2.153v-4a1.573,1.573,0,0,1,.071-.539,1.183,1.183,0,0,1,1.105-.809c.779,0,1.091.611,1.091,1.5v3.846h2.154v-4.1c0-2.043-1.063-2.994-2.48-2.994a2.487,2.487,0,0,0-2.139,1.121h-.042l-.1-.965h-1.87c.028.624.057,1.348.057,2.214Zm7.9-.341a4.885,4.885,0,0,0,2.239.5c1.983,0,2.989-.951,2.989-2.256-.014-1.008-.553-1.689-1.87-2.143-.85-.3-1.119-.468-1.119-.809s.3-.553.821-.553a3.458,3.458,0,0,1,1.5.4l.368-1.49a4.56,4.56,0,0,0-1.941-.411c-1.714,0-2.819.979-2.819,2.284-.014.823.538,1.6,1.983,2.086.794.27,1.006.44,1.006.809s-.269.567-.92.567a4.2,4.2,0,0,1-1.856-.51Zm12.311-3.76a2.69,2.69,0,0,0-3.032-3.008,5.691,5.691,0,0,0-2.692.624l.4,1.391a3.894,3.894,0,0,1,1.913-.525c1.062,0,1.261.525,1.261.908v.085c-2.451,0-4.066.851-4.066,2.653a2.125,2.125,0,0,0,2.238,2.129,2.494,2.494,0,0,0,1.984-.852h.042l.128.7h1.941a9,9,0,0,1-.114-1.675Zm-2.082,1.575a1.568,1.568,0,0,1-.043.369,1.19,1.19,0,0,1-1.119.794.773.773,0,0,1-.85-.822c0-.824.878-1.093,2.012-1.093Zm5.95,2.526V21.793h-2.154v6.939Zm-1.063-9.947a1.081,1.081,0,1,0,1.133,1.078A1.07,1.07,0,0,0,933.434,18.785Z" style="fill:#390e0c"/><path d="M896.1,37.056a3.623,3.623,0,0,0,1.656.357c1.467,0,2.221-.7,2.221-1.658-.01-.756-.419-1.249-1.393-1.585-.629-.221-.828-.346-.828-.588,0-.262.22-.42.608-.42a2.506,2.506,0,0,1,1.11.294l.283-1.1a3.439,3.439,0,0,0-1.446-.294c-1.268,0-2.085.725-2.085,1.68-.011.608.4,1.186,1.456,1.542.6.2.755.326.755.588s-.2.43-.681.43a3.1,3.1,0,0,1-1.373-.388Zm9.421-4.88h-1.6V35.23a.887.887,0,0,1-.053.346.857.857,0,0,1-.8.556c-.556,0-.8-.451-.8-1.2v-2.76h-1.6v3.012c0,1.585.765,2.235,1.8,2.235a1.827,1.827,0,0,0,1.6-.839h.031l.073.724h1.384c-.021-.43-.042-.976-.042-1.648Zm.775,5.132h1.551V34.317a1.068,1.068,0,0,1,.063-.4.812.812,0,0,1,.744-.577c.5,0,.734.441.734,1.091v2.876h1.551v-3a1.33,1.33,0,0,1,.063-.409.778.778,0,0,1,.733-.556c.514,0,.755.43.755,1.175v2.792h1.551V34.285c0-1.532-.744-2.225-1.729-2.225a1.846,1.846,0,0,0-.975.252,2.292,2.292,0,0,0-.66.619h-.021a1.452,1.452,0,0,0-1.4-.871,1.774,1.774,0,0,0-1.551.809h-.032l-.073-.693h-1.342c.021.451.042,1,.042,1.637Zm8.478,0h1.551V34.317a1.049,1.049,0,0,1,.063-.4.811.811,0,0,1,.744-.577c.5,0,.734.441.734,1.091v2.876h1.551v-3a1.329,1.329,0,0,1,.062-.409.781.781,0,0,1,.734-.556c.513,0,.754.43.754,1.175v2.792h1.551V34.285c0-1.532-.744-2.225-1.729-2.225a1.845,1.845,0,0,0-.974.252,2.308,2.308,0,0,0-.661.619h-.021a1.452,1.452,0,0,0-1.4-.871,1.776,1.776,0,0,0-1.551.809h-.031l-.074-.693h-1.341c.021.451.042,1,.042,1.637Zm10.071,0V32.176h-1.593v5.132Zm-.8-7.368a.8.8,0,1,0-.011,1.606.8.8,0,1,0,.011-1.606Zm2.221,1.123v1.113h-.681v1.175h.681v2.1a2.131,2.131,0,0,0,.44,1.522,1.654,1.654,0,0,0,1.2.441,3.145,3.145,0,0,0,1.037-.136l-.01-1.207a2.6,2.6,0,0,1-.472.042c-.482,0-.628-.284-.628-.9V33.351h1.142V32.176h-1.142v-1.47Z" style="fill:#390e0c"/><path d="M931.129,37.313v-.926l.845-.764c1.428-1.278,2.122-2.012,2.142-2.776,0-.534-.322-.956-1.076-.956a2.373,2.373,0,0,0-1.4.543l-.433-1.1a3.614,3.614,0,0,1,2.143-.674,2.032,2.032,0,0,1,2.293,2.052,4.064,4.064,0,0,1-1.74,2.816l-.6.5v.02h2.465v1.258Z" style="fill:#390e0c"/><path d="M941.037,34.013c0,2.022-.815,3.41-2.485,3.41-1.689,0-2.434-1.518-2.444-3.369,0-1.891.805-3.39,2.5-3.39C940.353,30.664,941.037,32.223,941.037,34.013Zm-3.39.041c-.01,1.5.352,2.213.946,2.213s.915-.745.915-2.233c0-1.449-.312-2.214-.925-2.214C938.019,31.82,937.637,32.535,937.647,34.054Z" style="fill:#390e0c"/><path d="M942.938,32.132h-.02l-1.247.594-.252-1.147,1.731-.8h1.267v6.539h-1.479Z" style="fill:#390e0c"/><path d="M945.061,35.6a1.738,1.738,0,0,1,1.167-1.64v-.03a1.586,1.586,0,0,1-.946-1.428c0-1.107,1-1.841,2.3-1.841,1.529,0,2.163.885,2.163,1.68a1.593,1.593,0,0,1-.946,1.438v.03a1.731,1.731,0,0,1,1.2,1.63c0,1.187-1,1.981-2.515,1.981C945.825,37.423,945.061,36.488,945.061,35.6Zm3.38-.051c0-.573-.423-.915-1.026-1.076a.992.992,0,0,0-.795.976.9.9,0,0,0,.926.915A.821.821,0,0,0,948.441,35.552Zm-1.72-3.1c0,.443.4.724.925.885a.894.894,0,0,0,.664-.834.75.75,0,0,0-.795-.805A.728.728,0,0,0,946.721,32.454Z" style="fill:#390e0c"/><polygon points="879.484 7.561 868.079 7.561 875.274 37.898 886.644 37.898 879.484 7.561" style="fill:#dc2b14"/><polygon points="864.444 7.561 853.04 7.561 860.234 37.898 871.604 37.898 864.444 7.561" style="fill:#dc2b14"/><polygon points="849.404 7.561 838 7.561 845.195 37.898 856.565 37.898 849.404 7.561" style="fill:#dc2b14"/><path d="M845.078,36.191a1.867,1.867,0,0,1-.26.117l-2.793-11.773c.534-.395,1.076-.776,1.416-.975a5.808,5.808,0,0,1,1.754-.643l.059-.117a.6.6,0,0,1,.35-.117l.293-.234a1.643,1.643,0,0,1,.7.234,1.65,1.65,0,0,0,.7-.175,3.284,3.284,0,0,0,.468-.761.671.671,0,0,1-.292-.058c-.151-.068-.293-.76-.293-.76s-.37.239-.526.175a7.685,7.685,0,0,1-.574-2.047h-.3v-.116h.292a3.164,3.164,0,0,1,.915-1.382.049.049,0,0,1-.034-.019c-.041-.06.08-.163.017-.2a.782.782,0,0,0-.263.123l.228-.444c.014-.027.03-.057.06-.066a.213.213,0,0,1,.067,0,.135.135,0,0,0,.12-.175.176.176,0,0,1-.151-.231.093.093,0,0,0-.106.065l.073.1c-.087-.028-.13.1-.126.194a.1.1,0,0,1-.115-.052.218.218,0,0,1-.094.232.543.543,0,0,1-.112-.449.078.078,0,1,1,.014-.134l-.127-.174a1.31,1.31,0,0,0,.52.105.124.124,0,0,0,.078-.021.217.217,0,0,0,.038-.081.146.146,0,0,1,.16-.083.146.146,0,0,1-.024-.19c-.013.051.072.076.108.038a.182.182,0,0,0,.026-.149.105.105,0,0,1,.082.168.191.191,0,0,0,.21-.183.7.7,0,0,1,.54-.053c.122.039.248.159.2.274l.16-.064a.1.1,0,0,0-.059-.1l.273-.055a.349.349,0,0,0,.212.179.19.19,0,0,0-.115.2.175.175,0,0,1,.186-.075.339.339,0,0,0,.016.222.148.148,0,0,0,.158-.173.128.128,0,0,0,.1-.235c-.047-.024-.108-.02-.142-.059a.106.106,0,0,1,.017-.143.249.249,0,0,1,.146-.055.322.322,0,0,1,.312.105.067.067,0,0,1,.1-.03.068.068,0,0,1,.008.1.275.275,0,0,1,.261.3l.054-.149.147.061a.167.167,0,0,0-.02.235.186.186,0,0,1,.275-.094c-.042.033,0,.108.052.114a.214.214,0,0,0,.142-.063l.019.291c.072.037.13-.113.207-.092.117.031-.076.257.026.321l.1-.024-.052.181a.567.567,0,0,0,.3.092.219.219,0,0,1,.32-.069c.029.025.054.059.091.069a.163.163,0,0,0,.079,0,1.532,1.532,0,0,0,.507-.222.083.083,0,0,1-.011.122,3.9,3.9,0,0,1,.771.028c-.1.031-.043.189.051.233s.215.052.265.142c-.019.066-.12.031-.176-.01a.929.929,0,0,0-.739-.152,1.1,1.1,0,0,1,.363.22.336.336,0,0,1-.217-.037,1.186,1.186,0,0,0-.828,0v.315h-.176v-.226c-.021.012-.045.019-.066.033a3.88,3.88,0,0,1-.4.285c.011.047.022.095.031.145h1.107v.234h-.058v.7H852.1v.116c0,.008-.058,0-.058,0V18.59h-.059v.467h-.058V19h-.059v.117l-.058-.059-.058.059-.059-.351v.351h-.058l-.059-.059-.058-.116V18.3h-.059l-.058.176v.234l-.059.058v.292h-.058v-.175h-.059v.234h0c0,.1,0,.2,0,.292,0,.858-.058.878-.058.878.024.4-.176.526-.176.526a1.285,1.285,0,0,1-.351,1.052,8.95,8.95,0,0,1-.584.819.566.566,0,0,1-.351.176l.117.175c.1-.024.3.283.468.468s.36.3.584.526.234.936.234.936c.137.083.059.643.059.643.209.487,0,.526,0,.526a.3.3,0,0,1,0,.234c.1.137-.059.526-.059.526.073.074,0,.585,0,.585a.27.27,0,0,1,.176.059c.068.063.058.351.058.351s.039-.03.059.233a2.267,2.267,0,0,1,0,.41c.1.014.058.351.058.351.083.122.078.156,0,.643a8.363,8.363,0,0,0-.058,1.228c.063,0,.1.1.175.292a3.2,3.2,0,0,1,.059.644c.029.2.185,1.125.175,1.345s-.058.234-.058.234v.058s.191.227.175.292-.409.293-.409.293.179.46.234.643.073.4.116.643.125.42.117.468c-.012.079-.086.074-.117.176s-.233,0-.233,0,.012.043,0,.058c-.1.086-.293,0-.293,0s0,.02-.058.058a.357.357,0,0,1-.293-.058,2.2,2.2,0,0,1-.234-.234s0,.044-.117.059-.326-.19-.409-.293a.943.943,0,0,1-.117-.175l-.117-.059c-.229.293-1.359.395-1.813.468a9.855,9.855,0,0,1-1.286.059s-.439.18-.994.35A1.863,1.863,0,0,1,845.078,36.191Zm6.374.351c.029-.009,1.27-.558,1.345-.585s.214-.165.351-.233.452-.128.468-.176.037-.13,0-.175-.123-.041-.234,0-.489.252-.643.292a3.8,3.8,0,0,0-.819.234,4.966,4.966,0,0,0-.7.409,1.536,1.536,0,0,0,.117.176C851.346,36.5,851.424,36.551,851.452,36.542ZM847.439,10.17c-.125-.012-.585-.249-.822-.286a2.306,2.306,0,0,0-.622.037.254.254,0,0,0,.087-.149c0-.075.1-.2.05-.187a2.147,2.147,0,0,0-.573.149,1.57,1.57,0,0,0-.249.237s-.087-.112-.125-.149-.193.111-.213.262a1.708,1.708,0,0,0-.27-.16c-.154-.065-.475-.151-.506-.172a.45.45,0,0,0-.063-.036s-.043.029-.015.061a.123.123,0,0,0,.088.026,3.9,3.9,0,0,1,.494.158c.06.033.161.093.27.164a.186.186,0,0,0,0,.033,1.272,1.272,0,0,0-.473.2,2.068,2.068,0,0,0,.224.075.951.951,0,0,0-.274.323,3.049,3.049,0,0,1-.237.411,2.932,2.932,0,0,0,.548-.261l.137-.137a.648.648,0,0,0,.286.46,1.773,1.773,0,0,1,.474.523s.124-.361.161-.485.112-.4-.012-.548a2.065,2.065,0,0,0,.846.585,2.375,2.375,0,0,1,.673.448.693.693,0,0,1-.013-.124,4.134,4.134,0,0,0-.448-1.059.818.818,0,0,0-.3-.149,2.2,2.2,0,0,0,.561-.012,2.753,2.753,0,0,1,.485-.125C847.725,10.282,847.563,10.183,847.439,10.17Zm-4.2,6.525-.069.007a1.214,1.214,0,0,0-.06-.456,3.845,3.845,0,0,0-.338-.4c-.029-.049-.093-.122-.109-.148s-.036,0-.017.028a.989.989,0,0,1,.068.286.9.9,0,0,0,.1.393,1.54,1.54,0,0,0-.464-.244c-.186-.034-.423-.057-.552-.073s-.237-.07-.239-.042.228.16.316.238a1.292,1.292,0,0,0,.6.413,1.465,1.465,0,0,0-.646.151,6.229,6.229,0,0,1-.633.391c-.1.048-.126.035-.12.065s.207-.019.33-.018a5.239,5.239,0,0,0,.721.012,2.024,2.024,0,0,0,.4-.135,1.319,1.319,0,0,0-.488.386c-.149.232-.229.5-.3.59s-.218.246-.2.272.294-.175.432-.249.506-.15.644-.333a2.1,2.1,0,0,0,.253-.431,1.631,1.631,0,0,0-.1.568,4.356,4.356,0,0,1,.131.529c.007.116.033.262.058.261a3.578,3.578,0,0,1,.14-.414,1.808,1.808,0,0,0,.244-.782c-.048-.194-.066-.3-.046-.277a1.576,1.576,0,0,0,.291.4,5.2,5.2,0,0,1,.443.33c.033.052.049.025.044,0a2.239,2.239,0,0,1-.151-.336,1.027,1.027,0,0,0-.422-.707.226.226,0,0,1,.1.039,1.011,1.011,0,0,0,.379-.007c.146-.012.239,0,.229-.017s-.242-.107-.293-.157A.689.689,0,0,0,843.239,16.7Z" style="fill:#390e0c"/><path d="M863.031,31.79l2.451,5h1.349l-.974-6.049h.563l.95-4.212h-2.192L863.4,15.46l2.3-.915L863.08,13.5l-.013-.08,1.357-4.152h-.031v-.6h-1.362V7.149h-.349v-.57h-.221V6.041h-.792v.538h-.222v.57H861.1V8.67h-1.362v.6h.032l1.314,4.023-.033.209-2.612,1.042,2.3.915-1.783,11.073h-1.419l2.007,8.441,1.56-3.184Zm-.966-20.048a.943.943,0,1,1-.943.942A.942.942,0,0,1,862.065,11.742Z" style="fill:#390e0c"/><path d="M879.408,36.3c.863.7,4.418.236,6.052.428a8.438,8.438,0,0,0,3.586-.635,3.291,3.291,0,0,0,3.61-2.67c.153-.742,2.285-1.4-.081-1.709a5.4,5.4,0,0,0-2.188.14,4.153,4.153,0,0,0-.345-.478c-.274-.327-.483-2.022-1.334-2.917s-1.271-.59-1.271-.59a5.833,5.833,0,0,0-2.239-.319l-.421-2,.155-.122a2.309,2.309,0,0,0,1.731-1.661,6.463,6.463,0,0,1,.245-.87c.195-.408.094-.812.185-.917a2.028,2.028,0,0,0,.046-1.06c-.091-.227-.214-.279-.363-.266h0c.037-.291.077-.613.114-.911.088-.145.252-.483.252-.483a1.989,1.989,0,0,0,.5-.632c.329-.533.186-.94-.045-.955-.125-.008-.358.217-.567.456-.009-.107-.038-.187-.1-.21-.165-.057-.419-.05-.55.342-.009.027-.018.061-.029.1a3.331,3.331,0,0,1,0-.345c.029-.463-.1-.471-.369-.511s-.465.679-.465.679c-.053-.158-.2-.168-.414-.137s-.406,1.081-.486,1.341a3.309,3.309,0,0,0-.07.77c-.007.111-.007.774-.007.774-.174.078-.123.612-.253.67a2.728,2.728,0,0,0-.46.591c-.07-.226-.387-.224-.387-.224a2.967,2.967,0,0,1-.32-.618,1.148,1.148,0,0,0-.639-.571,18.381,18.381,0,0,0-1.651-1.256c.028-.109-.127-.318-.127-.318.151-.057.1-.547.1-.547.524.055.562-.208.562-.208,1.09-.218.7-.354.978-.779a10.268,10.268,0,0,0,.394-2.542c.155-.123.109-.391.092-.459s.133-.1.231-.317a1.056,1.056,0,0,0,.041-.3.186.186,0,0,0,.152-.054c.053-.047.033-.166,0-.242.079.015.149-.013.162-.071a.35.35,0,0,0-.02-.155.223.223,0,0,0,.024-.019c.046-.041.037-.134.014-.208.025-.01.041-.024.042-.041l0-.036.006-.092a.168.168,0,0,0-.08-.145.377.377,0,0,0,.068-.2.1.1,0,0,0-.073-.081.442.442,0,0,0-.017-.082c.035,0,.062,0,.062-.009a.086.086,0,0,0,0-.028c0-.008-.054-.167-.086-.24a.129.129,0,0,0-.115-.075.328.328,0,0,0-.013-.194.1.1,0,0,0-.047-.042.365.365,0,0,0-.063-.214.092.092,0,0,0-.083-.023.277.277,0,0,0-.029-.1.11.11,0,0,0-.117-.039.355.355,0,0,0-.038-.2c-.036-.052-.125-.049-.2.006l-.047-.054h0c.074-.06.028-.249-.012-.3a.1.1,0,0,0-.1-.028.325.325,0,0,0-.053-.123.091.091,0,0,0-.083-.024.343.343,0,0,0-.055-.129c-.039-.041-.113-.031-.174.02a.3.3,0,0,0-.071-.219l-.1-.076h0c.009-.016.013-.025.012-.026l-.1-.074-.109-.079c-.026-.019-.075.007-.121.058a.322.322,0,0,0-.106-.219c-.043-.03-.107-.01-.157.043a.339.339,0,0,0-.119-.217c-.047-.03-.118,0-.165.07l-.027-.016a.3.3,0,0,0-.13-.245.112.112,0,0,0-.128.04.339.339,0,0,0-.138-.168.1.1,0,0,0-.1.019l-.012-.018a.111.111,0,0,0-.129-.009.326.326,0,0,0-.146-.132.115.115,0,0,0-.123.066.32.32,0,0,0-.171-.138c-.057-.01-.113.043-.134.122l-.011,0a.154.154,0,0,0-.124-.16l-.071,0-.05,0c-.05,0-.088.067-.091.149h0a.254.254,0,0,0-.241-.114.139.139,0,0,0-.09.152c-.023,0-.046.009-.068.015a.278.278,0,0,0-.236-.042.13.13,0,0,0-.064.138.3.3,0,0,0-.22-.006.15.15,0,0,0-.039.19l-.04.026a.258.258,0,0,0-.264-.019.134.134,0,0,0-.039.149.3.3,0,0,0-.222.022.151.151,0,0,0-.02.185.291.291,0,0,0-.239.025.154.154,0,0,0,0,.2l-.017.014c-.056-.077-.232-.036-.282,0a.149.149,0,0,0,0,.188.29.29,0,0,0-.246.042c-.045.039-.038.124.013.2l-.015.012c-.062-.069-.233-.015-.279.029a.147.147,0,0,0,.011.184l-.029.024a.287.287,0,0,0-.253.057.134.134,0,0,0,0,.156l0,.006a.322.322,0,0,0-.222.075.135.135,0,0,0,0,.154l-.026.036a.163.163,0,0,0-.185.046l-.049.062-.023.028c-.019.024,0,.079.054.131a.335.335,0,0,0-.232.114c-.032.05,0,.129.069.18L876,12.27c-.082-.029-.222.1-.243.16a.13.13,0,0,0,.082.149.25.25,0,0,0-.158.177c-.007.068-.014.132-.014.143s.074.024.167.029h.006l0,.015h0a.152.152,0,0,0-.173.126l0,.076v.045c0,.046.052.086.125.1a.246.246,0,0,0-.135.172c0,.055-.007.113-.008.131s.059.032.139.04l0,.017a.3.3,0,0,0-.16.211c-.006.053.044.1.115.126a.138.138,0,0,0-.141.1l-.009.066-.008.055c-.007.059.06.117.151.129v.006c-.092-.008-.184.152-.189.218s.062.121.151.131c-.088.008-.166.164-.167.228s.073.122.165.123h-.008c-.092,0-.171.17-.17.236s.077.118.169.116V15.4c-.086.018-.149.179-.145.242s.067.105.147.108c-.085.022-.142.186-.135.248s.078.1.164.1v.016a.31.31,0,0,0-.111.248.115.115,0,0,0,.1.089v.01a.306.306,0,0,0-.039.034c-.065.07-.015.238.026.286a.094.094,0,0,0,.087.028l.006.01,0,.039a4.116,4.116,0,0,0-2.517.084,5.468,5.468,0,0,0-2.222,3.052l3.982,16.794.437.056A8,8,0,0,0,879.408,36.3Z" style="fill:#390e0c"/></svg>