<svg xmlns="http://www.w3.org/2000/svg" viewBox="0 0 1280 300"><title>actor-congestion</title><path d="M239.08,44.5V95.154c0,6.572,15.866,11.9,35.445,11.9s35.445-5.33,35.445-11.9V44.5Z" style="fill:#3f3a27;stroke:#3f3a27;stroke-linecap:round;stroke-linejoin:round;stroke-width:1.5px"/><ellipse cx="274.525" cy="44.501" rx="35.445" ry="11.901" style="fill:#efeee8;stroke:#3f3a27;stroke-linecap:round;stroke-linejoin:round;stroke-width:1.5px"/><path d="M309.97,113.424v50.653c0,6.572,15.866,11.9,35.445,11.9s35.445-5.33,35.445-11.9V113.424Z" style="fill:#3f3a27;stroke:#3f3a27;stroke-linecap:round;stroke-linejoin:round;stroke-width:1.5px"/><ellipse cx="345.414" cy="113.424" rx="35.445" ry="11.901" style="fill:#efeee8;stroke:#3f3a27;stroke-linecap:round;stroke-linejoin:round;stroke-width:1.5px"/><path d="M981.651,88.1V138.75c0,6.572,15.866,11.9,35.445,11.9s35.445-5.33,35.445-11.9V88.1Z" style="fill:#3f3a27;stroke:#3f3a27;stroke-linecap:round;stroke-linejoin:round;stroke-width:1.5px"/><ellipse cx="1017.096" cy="88.097" rx="35.445" ry="11.901" style="fill:#efeee8;stroke:#3f3a27;stroke-linecap:round;stroke-linejoin:round;stroke-width:1.5px"/><path d="M203.636,136.817V187.47c0,6.572,15.866,11.9,35.445,11.9s35.445-5.33,35.445-11.9V136.817Z" style="fill:#3f3a27;stroke:#3f3a27;stroke-linecap:round;stroke-linejoin:round;stroke-width:1.5px"/><ellipse cx="239.08" cy="136.817" rx="35.445" ry="11.901" style="fill:#efeee8;stroke:#3f3a27;stroke-linecap:round;stroke-linejoin:round;stroke-width:1.5px"/><rect x="458.527" y="47.276" width="47.665" height="34.738" rx="4.023" ry="4.023" style="fill:#efeee8;stroke:#3f3a27;stroke-linecap:round;stroke-linejoin:round;stroke-width:1.5px"/><path d="M474.207,62.29h16.305a5.2,5.2,0,0,0,4.059-2.056c.977-1.124,7.164-8.614,10.044-12.1a3.979,3.979,0,0,0-2.446-.856H462.55a3.982,3.982,0,0,0-2.446.855c2.879,3.488,9.068,10.98,10.045,12.1A5.2,5.2,0,0,0,474.207,62.29Z" style="fill:#efeee8;stroke:#3f3a27;stroke-linecap:round;stroke-linejoin:round;stroke-width:1.5px"/><rect x="493.629" y="59.177" width="47.665" height="34.738" rx="4.023" ry="4.023" style="fill:#efeee8;stroke:#3f3a27;stroke-linecap:round;stroke-linejoin:round;stroke-width:1.5px"/><path d="M509.308,74.191h16.305a5.2,5.2,0,0,0,4.059-2.056c.977-1.124,7.164-8.614,10.044-12.1a3.979,3.979,0,0,0-2.446-.856H497.652a3.982,3.982,0,0,0-2.446.855c2.879,3.488,9.068,10.98,10.045,12.1A5.2,5.2,0,0,0,509.308,74.191Z" style="fill:#efeee8;stroke:#3f3a27;stroke-linecap:round;stroke-linejoin:round;stroke-width:1.5px"/><rect x="460.105" y="74.273" width="47.665" height="34.738" rx="4.023" ry="4.023" style="fill:#efeee8;stroke:#3f3a27;stroke-linecap:round;stroke-linejoin:round;stroke-width:1.5px"/><path d="M475.784,89.287H492.09a5.2,5.2,0,0,0,4.059-2.056c.977-1.124,7.164-8.614,10.044-12.1a3.979,3.979,0,0,0-2.446-.856H464.128a3.982,3.982,0,0,0-2.446.855c2.879,3.488,9.068,10.98,10.045,12.1A5.2,5.2,0,0,0,475.784,89.287Z" style="fill:#efeee8;stroke:#3f3a27;stroke-linecap:round;stroke-linejoin:round;stroke-width:1.5px"/><rect x="434.695" y="84.504" width="47.665" height="34.738" rx="4.023" ry="4.023" style="fill:#efeee8;stroke:#3f3a27;stroke-linecap:round;stroke-linejoin:round;stroke-width:1.5px"/><path d="M450.374,99.518H466.68a5.2,5.2,0,0,0,4.059-2.056c.977-1.124,7.164-8.614,10.044-12.1a3.979,3.979,0,0,0-2.446-.856H438.718a3.982,3.982,0,0,0-2.446.855c2.879,3.488,9.068,10.98,10.045,12.1A5.2,5.2,0,0,0,450.374,99.518Z" style="fill:#efeee8;stroke:#3f3a27;stroke-linecap:round;stroke-linejoin:round;stroke-width:1.5px"/><rect x="471.374" y="91.642" width="47.665" height="34.738" rx="4.023" ry="4.023" style="fill:#efeee8;stroke:#3f3a27;stroke-linecap:round;stroke-linejoin:round;stroke-width:1.5px"/><path d="M487.054,106.656h16.305a5.2,5.2,0,0,0,4.059-2.056c.977-1.124,7.164-8.614,10.044-12.1a3.979,3.979,0,0,0-2.446-.856H475.4a3.982,3.982,0,0,0-2.446.855c2.879,3.488,9.068,10.98,10.045,12.1A5.2,5.2,0,0,0,487.054,106.656Z" style="fill:#efeee8;stroke:#3f3a27;stroke-linecap:round;stroke-linejoin:round;stroke-width:1.5px"/><rect x="493.629" y="115.781" width="47.665" height="34.738" rx="4.023" ry="4.023" style="fill:#efeee8;stroke:#3f3a27;stroke-linecap:round;stroke-linejoin:round;stroke-width:1.5px"/><path d="M509.308,130.795h16.305a5.2,5.2,0,0,0,4.059-2.056c.977-1.124,7.164-8.614,10.044-12.1a3.979,3.979,0,0,0-2.446-.856H497.652a3.982,3.982,0,0,0-2.446.855c2.879,3.488,9.068,10.98,10.045,12.1A5.2,5.2,0,0,0,509.308,130.795Z" style="fill:#efeee8;stroke:#3f3a27;stroke-linecap:round;stroke-linejoin:round;stroke-width:1.5px"/><rect x="447.542" y="119.798" width="47.665" height="34.738" rx="4.023" ry="4.023" style="fill:#efeee8;stroke:#3f3a27;stroke-linecap:round;stroke-linejoin:round;stroke-width:1.5px"/><path d="M463.221,134.813h16.305a5.2,5.2,0,0,0,4.059-2.056c.977-1.124,7.164-8.614,10.044-12.1a3.979,3.979,0,0,0-2.446-.856H451.565a3.982,3.982,0,0,0-2.446.855c2.879,3.488,9.068,10.98,10.045,12.1A5.2,5.2,0,0,0,463.221,134.813Z" style="fill:#efeee8;stroke:#3f3a27;stroke-linecap:round;stroke-linejoin:round;stroke-width:1.5px"/><rect x="465.251" y="136.008" width="47.665" height="34.738" rx="4.023" ry="4.023" style="fill:#efeee8;stroke:#3f3a27;stroke-linecap:round;stroke-linejoin:round;stroke-width:1.5px"/><path d="M480.931,151.022h16.305a5.2,5.2,0,0,0,4.059-2.056c.977-1.124,7.164-8.614,10.044-12.1a3.979,3.979,0,0,0-2.446-.856H469.274a3.982,3.982,0,0,0-2.446.855c2.879,3.488,9.068,10.98,10.045,12.1A5.2,5.2,0,0,0,480.931,151.022Z" style="fill:#efeee8;stroke:#3f3a27;stroke-linecap:round;stroke-linejoin:round;stroke-width:1.5px"/><rect x="511.339" y="89.287" width="47.665" height="34.738" rx="4.023" ry="4.023" style="fill:#efeee8;stroke:#3f3a27;stroke-linecap:round;stroke-linejoin:round;stroke-width:1.5px"/><path d="M527.018,104.3h16.305a5.2,5.2,0,0,0,4.059-2.056c.977-1.124,7.164-8.614,10.044-12.1a3.979,3.979,0,0,0-2.446-.856H515.362a3.982,3.982,0,0,0-2.446.855c2.879,3.488,9.068,10.98,10.045,12.1A5.2,5.2,0,0,0,527.018,104.3Z" style="fill:#efeee8;stroke:#3f3a27;stroke-linecap:round;stroke-linejoin:round;stroke-width:1.5px"/><rect x="533.594" y="119.798" width="47.665" height="34.738" rx="4.023" ry="4.023" style="fill:#efeee8;stroke:#3f3a27;stroke-linecap:round;stroke-linejoin:round;stroke-width:1.5px"/><path d="M549.274,134.813h16.305a5.2,5.2,0,0,0,4.059-2.056c.977-1.124,7.164-8.614,10.044-12.1a3.979,3.979,0,0,0-2.446-.856H537.618a3.982,3.982,0,0,0-2.446.855c2.879,3.488,9.068,10.98,10.045,12.1A5.2,5.2,0,0,0,549.274,134.813Z" style="fill:#efeee8;stroke:#3f3a27;stroke-linecap:round;stroke-linejoin:round;stroke-width:1.5px"/><rect x="818.792" y="102.006" width="47.665" height="34.738" rx="4.023" ry="4.023" style="fill:#efeee8;stroke:#3f3a27;stroke-linecap:round;stroke-linejoin:round;stroke-width:1.5px"/><path d="M834.471,117.02h16.305a5.2,5.2,0,0,0,4.059-2.056c.977-1.124,7.164-8.614,10.044-12.1a3.979,3.979,0,0,0-2.446-.856H822.815a3.982,3.982,0,0,0-2.446.855c2.879,3.488,9.068,10.98,10.045,12.1A5.2,5.2,0,0,0,834.471,117.02Z" style="fill:#efeee8;stroke:#3f3a27;stroke-linecap:round;stroke-linejoin:round;stroke-width:1.5px"/><rect x="880.082" y="102.006" width="47.665" height="34.738" rx="4.023" ry="4.023" style="fill:#efeee8;stroke:#3f3a27;stroke-linecap:round;stroke-linejoin:round;stroke-width:1.5px"/><path d="M895.762,117.02h16.305a5.2,5.2,0,0,0,4.059-2.056c.977-1.124,7.164-8.614,10.044-12.1a3.979,3.979,0,0,0-2.446-.856H884.105a3.982,3.982,0,0,0-2.446.855c2.879,3.488,9.068,10.98,10.045,12.1A5.2,5.2,0,0,0,895.762,117.02Z" style="fill:#efeee8;stroke:#3f3a27;stroke-linecap:round;stroke-linejoin:round;stroke-width:1.5px"/><rect x="757.042" y="102.006" width="47.665" height="34.738" rx="4.023" ry="4.023" style="fill:#efeee8;stroke:#3f3a27;stroke-linecap:round;stroke-linejoin:round;stroke-width:1.5px"/><path d="M772.721,117.02h16.305a5.2,5.2,0,0,0,4.059-2.056c.977-1.124,7.164-8.614,10.044-12.1a3.979,3.979,0,0,0-2.446-.856H761.065a3.982,3.982,0,0,0-2.446.855c2.879,3.488,9.068,10.98,10.045,12.1A5.2,5.2,0,0,0,772.721,117.02Z" style="fill:#efeee8;stroke:#3f3a27;stroke-linecap:round;stroke-linejoin:round;stroke-width:1.5px"/><rect x="506.193" y="142.346" width="47.665" height="34.738" rx="4.023" ry="4.023" style="fill:#efeee8;stroke:#3f3a27;stroke-linecap:round;stroke-linejoin:round;stroke-width:1.5px"/><path d="M521.872,157.36h16.305a5.2,5.2,0,0,0,4.059-2.056c.977-1.124,7.164-8.614,10.044-12.1a3.979,3.979,0,0,0-2.446-.856H510.216a3.982,3.982,0,0,0-2.446.855c2.879,3.488,9.068,10.98,10.045,12.1A5.2,5.2,0,0,0,521.872,157.36Z" style="fill:#efeee8;stroke:#3f3a27;stroke-linecap:round;stroke-linejoin:round;stroke-width:1.5px"/><path d="M689.9,151.718l-29.371-8.092c7.406-4.536,12.588-14.873,12.588-26.916a20.982,20.982,0,0,0-41.963,0c0,12.042,5.18,22.379,12.586,26.915l-29.374,8.092a6.263,6.263,0,0,0-4.07,7.169l2.089,9.862a3.349,3.349,0,0,0,3.238,2.518h73.019a3.349,3.349,0,0,0,3.238-2.518l2.089-9.862a6.264,6.264,0,0,0-4.07-7.169Z" style="fill:#3f3a27"/><path d="M634.049,91.931a1.989,1.989,0,0,1-1.816-2.791,11.211,11.211,0,0,0,.937-5.16,3.893,3.893,0,0,1-3.8-.255,3.407,3.407,0,0,1-1.418-3.046,3.937,3.937,0,0,1,.88-2.264q-.779.286-1.626.512c-3.265.87-7.046.1-7.955-3.057a4.92,4.92,0,0,1,.65-3.98,44.468,44.468,0,0,1-5.882.95,1.991,1.991,0,0,1-2.135-1.6,8.729,8.729,0,0,1,2.1-7.29,27.005,27.005,0,0,1-6.159-2.97c-.813-.529-3.286-2.137-3.554-4.843-.292-2.937,2.08-5.5,6.193-6.682a44.579,44.579,0,0,1,18.246-1.323,16.862,16.862,0,0,1,7.395,2.5,8.521,8.521,0,0,1,3.861,7.75c-.37,3.08-2.616,5.229-4.629,6.682a5.927,5.927,0,0,1,.8.258c3.227,1.306,4.392,5.027,4.116,8.137a13.417,13.417,0,0,1-3.485,7.84,10.427,10.427,0,0,1,.31,1.646,15.178,15.178,0,0,1-1.2,7.808A1.987,1.987,0,0,1,634.049,91.931Zm-2.225-14.874a4.755,4.755,0,0,1,2.613.806,9.47,9.47,0,0,0,1.85-4.763,6.159,6.159,0,0,0-.166-2.071,7.945,7.945,0,0,1-.453,1.5,9.9,9.9,0,0,1-4.035,4.535C631.7,77.059,631.759,77.057,631.823,77.057Zm.475-8.168a13.776,13.776,0,0,0-8.253,4.1c-.789.825-1.058,1.486-.975,1.776.138.48,1.6.721,3.113.317,1.728-.46,4.781-1.6,5.813-4.085A4.487,4.487,0,0,0,632.3,68.889Zm-13.727-3.838a7.157,7.157,0,0,0-2.683,3.559,40.927,40.927,0,0,0,13.375-4.468,7.891,7.891,0,0,0-2.53-.943,1.988,1.988,0,0,1-1.816,2.059A27.071,27.071,0,0,1,618.571,65.052Zm6.3-5.995a12.429,12.429,0,0,1,6.843,1.934,9.867,9.867,0,0,1,1.185.917c1.959-1.4,2.953-2.686,3.112-4.006a4.647,4.647,0,0,0-2.18-4.011,13.261,13.261,0,0,0-5.667-1.827,40.646,40.646,0,0,0-16.607,1.2c-1.732.5-3.435,1.507-3.339,2.471.037.368.373,1,1.767,1.9a23.163,23.163,0,0,0,7.752,3.218A13.409,13.409,0,0,1,619.9,59.9,15.432,15.432,0,0,1,624.875,59.057Z" style="fill:#3f3a27"/><path d="M234.456,229.819a9.316,9.316,0,0,0-4.823-1.26c-3.815,0-5.255,2.339-5.255,4.319,0,2.7,1.656,4.067,5.328,5.615,4.427,1.872,6.695,4.14,6.695,8.063,0,4.355-3.167,7.7-9.071,7.7a12.625,12.625,0,0,1-6.551-1.728l.828-2.483a11.184,11.184,0,0,0,5.9,1.692c3.671,0,5.831-1.98,5.831-4.932,0-2.7-1.476-4.355-5.039-5.8-4.14-1.548-6.947-3.959-6.947-7.739,0-4.175,3.383-7.235,8.387-7.235a11.141,11.141,0,0,1,5.615,1.3Z" style="fill:#3f3a27"/><path d="M257.747,243.894c0,7.307-4.824,10.4-9.179,10.4-5.039,0-8.927-3.78-8.927-10.115,0-6.7,4.176-10.4,9.179-10.4C254.184,233.779,257.747,237.882,257.747,243.894Zm-9.035-7.775c-4.248,0-6.011,4.175-6.011,7.955,0,4.355,2.412,7.883,5.939,7.883,3.563,0,6.047-3.528,6.047-7.955C254.688,240.51,253,236.119,248.712,236.119Z" style="fill:#3f3a27"/><path d="M277.655,248.645c0,2.016.108,3.708.18,5.219h-2.7l-.144-3.1h-.108a7.114,7.114,0,0,1-6.264,3.528c-2.951,0-6.443-1.692-6.443-8.459V234.247h2.987V245.3c0,3.815,1.116,6.479,4.392,6.479a5.193,5.193,0,0,0,5.111-5.327v-12.2h2.988Z" style="fill:#3f3a27"/><path d="M292.523,236.767a8.99,8.99,0,0,0-1.08-.072c-3.239,0-4.9,3.2-4.9,6.515v10.655H283.56v-13.75c0-2.087-.036-4-.144-5.867h2.628l.144,3.78h.108a5.872,5.872,0,0,1,5.327-4.211,7.652,7.652,0,0,1,.9.108Z" style="fill:#3f3a27"/><path d="M309.262,253.145a12.539,12.539,0,0,1-5.327,1.116c-5.615,0-9.323-4-9.323-10.007,0-6.047,4-10.475,10.042-10.475a10.819,10.819,0,0,1,4.716,1.044l-.756,2.412a7.954,7.954,0,0,0-4.031-1.008c-4.536,0-6.911,3.635-6.911,7.847,0,4.751,2.844,7.739,6.8,7.739a9.84,9.84,0,0,0,4.248-.972Z" style="fill:#3f3a27"/><path d="M327.333,253.036a14.227,14.227,0,0,1-6.155,1.224c-5.723,0-9.143-4.032-9.143-9.9,0-6.155,3.456-10.583,8.747-10.583,6.047,0,7.595,5.543,7.595,8.963,0,.684-.036,1.188-.072,1.656H314.951c.036,5.436,3.132,7.487,6.659,7.487a12.4,12.4,0,0,0,5.147-1.008Zm-1.908-10.871c.036-2.664-1.08-6.119-4.931-6.119-3.6,0-5.184,3.419-5.471,6.119Z" style="fill:#3f3a27"/><path d="M624.611,253.865h-3.167l-2.952-8.891h-9.539l-2.879,8.891h-3.06l9.071-27.429h3.456ZM617.88,242.6l-2.7-8.135c-.576-1.872-1.044-3.6-1.4-5.22h-.108c-.36,1.656-.864,3.384-1.368,5.111l-2.736,8.243Z" style="fill:#3f3a27"/><path d="M641.748,253.145a12.543,12.543,0,0,1-5.328,1.116c-5.615,0-9.323-4-9.323-10.007,0-6.047,4-10.475,10.042-10.475a10.823,10.823,0,0,1,4.716,1.044l-.757,2.412a7.954,7.954,0,0,0-4.031-1.008c-4.536,0-6.911,3.635-6.911,7.847,0,4.751,2.844,7.739,6.8,7.739a9.84,9.84,0,0,0,4.248-.972Z" style="fill:#3f3a27"/><path d="M646.718,230.684l2.951-1.008v4.571h5.075v2.34h-5.075v11.338c0,2.484.756,3.852,2.664,3.852a5.849,5.849,0,0,0,2.016-.288l.18,2.3a7.549,7.549,0,0,1-2.916.468c-4.751,0-4.895-4.319-4.895-6.407V236.587h-3.024v-2.34h3.024Z" style="fill:#3f3a27"/><path d="M675.335,243.894c0,7.307-4.823,10.4-9.179,10.4-5.039,0-8.927-3.78-8.927-10.115,0-6.7,4.176-10.4,9.179-10.4C671.771,233.779,675.335,237.883,675.335,243.894Zm-9.035-7.775c-4.247,0-6.011,4.175-6.011,7.955,0,4.355,2.411,7.883,5.939,7.883,3.563,0,6.047-3.528,6.047-7.955C672.275,240.51,670.584,236.119,666.3,236.119Z" style="fill:#3f3a27"/><path d="M688.836,236.767a9,9,0,0,0-1.08-.072c-3.239,0-4.9,3.2-4.9,6.515v10.655h-2.987v-13.75c0-2.087-.036-4-.145-5.867h2.628l.144,3.78h.108a5.873,5.873,0,0,1,5.327-4.211,7.647,7.647,0,0,1,.9.108Z" style="fill:#3f3a27"/><path d="M990,229.82a9.318,9.318,0,0,0-4.823-1.26c-3.815,0-5.256,2.339-5.256,4.319,0,2.7,1.656,4.067,5.328,5.615,4.427,1.872,6.694,4.14,6.694,8.063,0,4.355-3.167,7.7-9.07,7.7a12.627,12.627,0,0,1-6.552-1.728l.828-2.483a11.185,11.185,0,0,0,5.9,1.692c3.672,0,5.831-1.98,5.831-4.932,0-2.7-1.476-4.355-5.039-5.8-4.14-1.548-6.947-3.959-6.947-7.739,0-4.175,3.384-7.235,8.387-7.235a11.14,11.14,0,0,1,5.615,1.3Z" style="fill:#3f3a27"/><path d="M997.422,230.684l2.952-1.008v4.571h5.075v2.34h-5.075v11.338c0,2.484.756,3.852,2.663,3.852a5.845,5.845,0,0,0,2.016-.288l.181,2.3a7.556,7.556,0,0,1-2.916.468c-4.751,0-4.9-4.319-4.9-6.407V236.587H994.4v-2.34h3.023Z" style="fill:#3f3a27"/><path d="M1026.04,243.894c0,7.307-4.824,10.4-9.18,10.4-5.039,0-8.927-3.78-8.927-10.115,0-6.7,4.176-10.4,9.179-10.4C1022.477,233.779,1026.04,237.883,1026.04,243.894ZM1017,236.119c-4.248,0-6.012,4.175-6.012,7.955,0,4.355,2.412,7.883,5.939,7.883,3.563,0,6.048-3.528,6.048-7.955C1022.98,240.51,1021.288,236.119,1017,236.119Z" style="fill:#3f3a27"/><path d="M1039.54,236.767a8.983,8.983,0,0,0-1.08-.072c-3.239,0-4.895,3.2-4.895,6.515v10.655h-2.988v-13.75c0-2.087-.036-4-.144-5.867h2.628l.144,3.78h.108a5.871,5.871,0,0,1,5.327-4.211,7.656,7.656,0,0,1,.9.108Z" style="fill:#3f3a27"/><path d="M1056.927,253.037a14.223,14.223,0,0,1-6.155,1.224c-5.723,0-9.143-4.032-9.143-9.9,0-6.155,3.456-10.583,8.747-10.583,6.047,0,7.595,5.543,7.595,8.963,0,.684-.036,1.188-.071,1.656h-13.354c.036,5.436,3.132,7.487,6.659,7.487a12.4,12.4,0,0,0,5.147-1.008Zm-1.907-10.871c.036-2.664-1.08-6.119-4.932-6.119-3.6,0-5.184,3.419-5.471,6.119Z" style="fill:#3f3a27"/><line x1="61" y1="280.352" x2="1197.895" y2="280.352" style="fill:none;stroke:#3f3a27;stroke-linecap:round;stroke-linejoin:round;stroke-width:3px"/><path d="M1216,280.352c-8.519,3.161-19.09,8.555-25.642,14.268l5.161-14.268-5.161-14.265C1196.91,271.8,1207.481,277.194,1216,280.352Z" style="fill:#3f3a27"/></svg>